<svg xmlns="http://www.w3.org/2000/svg" xmlns:xlink="http://www.w3.org/1999/xlink" width="306" zoomAndPan="magnify" viewBox="0 0 229.5 30.000001" height="40" preserveAspectRatio="xMidYMid meet" version="1.0"><defs><g/><clipPath id="3e3ca51557"><path d="M 3.460938 0 L 225.554688 0 L 225.554688 29.03125 L 3.460938 29.03125 Z M 3.460938 0 " clip-rule="nonzero"/></clipPath></defs><g clip-path="url(#3e3ca51557)"><path fill="#ffffff" d="M 3.460938 0 L 226.039062 0 L 226.039062 36.371094 L 3.460938 36.371094 Z M 3.460938 0 " fill-opacity="1" fill-rule="nonzero"/><path fill="#ffffff" d="M 3.460938 0 L 226.039062 0 L 226.039062 29.09375 L 3.460938 29.09375 Z M 3.460938 0 " fill-opacity="1" fill-rule="nonzero"/><path fill="#ffffff" d="M 3.460938 0 L 226.039062 0 L 226.039062 29.09375 L 3.460938 29.09375 Z M 3.460938 0 " fill-opacity="1" fill-rule="nonzero"/></g><g fill="#000000" fill-opacity="1"><g transform="translate(42.137662, 19.978921)"><g><path d="M 10.046875 -13.15625 L 10.046875 -10.96875 L 4.3125 -10.96875 L 4.3125 -7.5 L 9.515625 -7.5 L 9.515625 -5.34375 L 4.3125 -5.34375 L 4.3125 0 L 1.703125 0 L 1.703125 -13.15625 Z M 10.046875 -13.15625 "/></g></g></g><g fill="#000000" fill-opacity="1"><g transform="translate(52.77068, 19.978921)"><g><path d="M 4.3125 0 L 1.703125 0 L 1.703125 -13.15625 L 4.3125 -13.15625 Z M 4.3125 0 "/></g></g></g><g fill="#000000" fill-opacity="1"><g transform="translate(58.797855, 19.978921)"><g><path d="M 4.234375 0 L 1.703125 0 L 1.703125 -13.15625 L 4.6875 -13.15625 L 9.96875 -4.671875 L 10.203125 -4.71875 L 10.203125 -13.15625 L 12.703125 -13.15625 L 12.703125 0 L 10.03125 0 L 4.453125 -9.046875 L 4.234375 -9.015625 Z M 4.234375 0 "/></g></g></g><g fill="#000000" fill-opacity="1"><g transform="translate(73.218104, 19.978921)"><g><path d="M 12.625 0 L 9.890625 0 L 8.890625 -3.03125 L 3.859375 -3.03125 L 2.875 0 L 0.203125 0 L 4.734375 -13.15625 L 8.078125 -13.15625 Z M 6.25 -10.40625 L 4.5625 -5.21875 L 8.171875 -5.21875 L 6.46875 -10.40625 Z M 6.25 -10.40625 "/></g></g></g><g fill="#000000" fill-opacity="1"><g transform="translate(86.037103, 19.978921)"><g><path d="M 4.234375 0 L 1.703125 0 L 1.703125 -13.15625 L 4.6875 -13.15625 L 9.96875 -4.671875 L 10.203125 -4.71875 L 10.203125 -13.15625 L 12.703125 -13.15625 L 12.703125 0 L 10.03125 0 L 4.453125 -9.046875 L 4.234375 -9.015625 Z M 4.234375 0 "/></g></g></g><g fill="#000000" fill-opacity="1"><g transform="translate(100.457352, 19.978921)"><g><path d="M 7.1875 0.1875 C 5.976562 0.1875 4.910156 -0.0625 3.984375 -0.5625 C 3.054688 -1.070312 2.332031 -1.832031 1.8125 -2.84375 C 1.289062 -3.851562 1.03125 -5.097656 1.03125 -6.578125 C 1.03125 -8.054688 1.289062 -9.300781 1.8125 -10.3125 C 2.332031 -11.320312 3.054688 -12.078125 3.984375 -12.578125 C 4.910156 -13.085938 5.976562 -13.34375 7.1875 -13.34375 C 8.445312 -13.34375 9.519531 -13.09375 10.40625 -12.59375 C 11.289062 -12.101562 11.925781 -11.347656 12.3125 -10.328125 L 10.40625 -9.171875 L 10.1875 -9.1875 C 9.90625 -9.863281 9.519531 -10.347656 9.03125 -10.640625 C 8.550781 -10.941406 7.9375 -11.09375 7.1875 -11.09375 C 6.09375 -11.09375 5.238281 -10.734375 4.625 -10.015625 C 4.019531 -9.296875 3.71875 -8.148438 3.71875 -6.578125 C 3.71875 -5.015625 4.019531 -3.867188 4.625 -3.140625 C 5.238281 -2.421875 6.09375 -2.0625 7.1875 -2.0625 C 8.894531 -2.0625 9.941406 -2.890625 10.328125 -4.546875 L 10.546875 -4.546875 L 12.46875 -3.546875 C 12.101562 -2.304688 11.484375 -1.375 10.609375 -0.75 C 9.742188 -0.125 8.601562 0.1875 7.1875 0.1875 Z M 7.1875 0.1875 "/></g></g></g><g fill="#000000" fill-opacity="1"><g transform="translate(113.357307, 19.978921)"><g><path d="M 4.3125 -5.78125 L 4.3125 -2.171875 L 10.59375 -2.171875 L 10.59375 0 L 1.703125 0 L 1.703125 -13.15625 L 10.4375 -13.15625 L 10.4375 -10.96875 L 4.3125 -10.96875 L 4.3125 -7.890625 L 9.671875 -7.890625 L 9.671875 -5.78125 Z M 4.3125 -5.78125 "/></g></g></g><g fill="#000000" fill-opacity="1"><g transform="translate(124.665014, 19.978921)"><g/></g></g><g fill="#000000" fill-opacity="1"><g transform="translate(129.009983, 19.978921)"><g><path d="M 10.046875 -13.15625 L 10.046875 -10.96875 L 4.3125 -10.96875 L 4.3125 -7.5 L 9.515625 -7.5 L 9.515625 -5.34375 L 4.3125 -5.34375 L 4.3125 0 L 1.703125 0 L 1.703125 -13.15625 Z M 10.046875 -13.15625 "/></g></g></g><g fill="#000000" fill-opacity="1"><g transform="translate(139.643001, 19.978921)"><g><path d="M 4.3125 -13.15625 L 4.3125 -2.171875 L 10.21875 -2.171875 L 10.21875 0 L 1.703125 0 L 1.703125 -13.15625 Z M 4.3125 -13.15625 "/></g></g></g><g fill="#000000" fill-opacity="1"><g transform="translate(150.29401, 19.978921)"><g><path d="M 6.96875 0.1875 C 5.15625 0.1875 3.8125 -0.238281 2.9375 -1.09375 C 2.0625 -1.957031 1.625 -3.234375 1.625 -4.921875 L 1.625 -13.15625 L 4.171875 -13.15625 L 4.171875 -4.953125 C 4.171875 -3.992188 4.398438 -3.269531 4.859375 -2.78125 C 5.328125 -2.300781 6.03125 -2.0625 6.96875 -2.0625 C 8.832031 -2.0625 9.765625 -3.023438 9.765625 -4.953125 L 9.765625 -13.15625 L 12.3125 -13.15625 L 12.3125 -4.921875 C 12.3125 -3.234375 11.875 -1.957031 11 -1.09375 C 10.125 -0.238281 8.78125 0.1875 6.96875 0.1875 Z M 6.96875 0.1875 "/></g></g></g><g fill="#000000" fill-opacity="1"><g transform="translate(164.237477, 19.978921)"><g><path d="M 2.890625 0 L 0.21875 0 L 4.125 -6.765625 L 0.40625 -13.15625 L 3.171875 -13.15625 L 5.90625 -8.4375 L 6.125 -8.4375 L 8.890625 -13.15625 L 11.515625 -13.15625 L 7.8125 -6.765625 L 11.71875 0 L 8.953125 0 L 6.03125 -5.078125 L 5.8125 -5.078125 Z M 2.890625 0 "/></g></g></g></svg>